<svg viewBox="0 0 24 24" fill="none" xmlns="http://www.w3.org/2000/svg" style="display:block;">
<g transform="translate(-3.5,-3.5) scale(1.3)">
  <path fill="currentColor" fill-rule="evenodd" clip-rule="evenodd"
    d="M11 2H13C16.9 2 18.9 2 20.4 3.6C21.9 5.1 22 7.1 22 11V13C22 16.9 21.9 18.9 20.4 20.4C18.9 21.9 16.9 22 13 22H11C7.1 22 5.1 21.9 3.6 20.4C2.1 18.9 2 16.9 2 13V11C2 7.1 2.1 5.1 3.6 3.6C5.1 2.1 7.1 2 11 2Z
    M13 5H11C7.5 5 6.5 5 5.9 5.6C5.3 6.2 5 6.8 5 11V13C5 16.5 5.3 17.8 5.9 18.4C6.5 19 7.5 19 11 19H13C16.5 19 17.5 19 18.1 18.4C18.7 17.8 19 16.5 19 13V11C19 7.5 18.7 6.2 18.1 5.6C17.5 5 16.5 5 13 5Z"/>

  </g>
</svg>